<svg width="100%" height="100%" id="svg" viewBox="0 0 1440 690" xmlns="http://www.w3.org/2000/svg" class="transition duration-300 ease-in-out delay-150"><defs><linearGradient id="gradient" x1="0%" y1="50%" x2="100%" y2="50%"><stop offset="5%" stop-color="#144aa1"></stop><stop offset="95%" stop-color="#8ed1fc"></stop></linearGradient></defs><path d="M 0,700 C 0,700 0,175 0,175 C 109.66507177033492,192.52153110047846 219.33014354066984,210.04306220095694 312,217 C 404.66985645933016,223.95693779904306 480.3444976076555,220.34928229665073 561,198 C 641.6555023923445,175.65071770334927 727.2918660287081,134.55980861244018 820,141 C 912.7081339712919,147.44019138755982 1012.488038277512,201.41148325358853 1117,215 C 1221.511961722488,228.58851674641147 1330.755980861244,201.79425837320574 1440,175 C 1440,175 1440,700 1440,700 Z" stroke="none" stroke-width="0" fill="url(#gradient)" fill-opacity="0.4" class="transition-all duration-300 ease-in-out delay-150 path-0"></path><defs><linearGradient id="gradient" x1="0%" y1="50%" x2="100%" y2="50%"><stop offset="5%" stop-color="#144aa1"></stop><stop offset="95%" stop-color="#8ed1fc"></stop></linearGradient></defs><path d="M 0,700 C 0,700 0,350 0,350 C 119.99043062200957,330.755980861244 239.98086124401914,311.511961722488 317,298 C 394.01913875598086,284.488038277512 428.06698564593296,276.7081339712919 529,293 C 629.933014354067,309.2918660287081 797.7511961722488,349.65550239234443 900,370 C 1002.2488038277512,390.34449760765557 1038.9282296650717,390.66985645933016 1118,384 C 1197.0717703349283,377.33014354066984 1318.5358851674641,363.6650717703349 1440,350 C 1440,350 1440,700 1440,700 Z" stroke="none" stroke-width="0" fill="url(#gradient)" fill-opacity="0.53" class="transition-all duration-300 ease-in-out delay-150 path-1"></path><defs><linearGradient id="gradient" x1="0%" y1="50%" x2="100%" y2="50%"><stop offset="5%" stop-color="#144aa1"></stop><stop offset="95%" stop-color="#8ed1fc"></stop></linearGradient></defs><path d="M 0,700 C 0,700 0,525 0,525 C 96.89952153110048,510.5598086124402 193.79904306220095,496.11961722488036 276,506 C 358.20095693779905,515.8803827751196 425.7033492822967,550.0813397129186 535,555 C 644.2966507177033,559.9186602870814 795.3875598086124,535.555023923445 914,530 C 1032.6124401913876,524.444976076555 1118.7464114832537,537.6985645933015 1201,540 C 1283.2535885167463,542.3014354066985 1361.6267942583731,533.6507177033493 1440,525 C 1440,525 1440,700 1440,700 Z" stroke="none" stroke-width="0" fill="url(#gradient)" fill-opacity="1" class="transition-all duration-300 ease-in-out delay-150 path-2"></path></svg>