<svg width="100%" height="100%" id="svg" viewBox="0 0 1440 490" xmlns="http://www.w3.org/2000/svg" class="transition duration-300 ease-in-out delay-150"><defs><linearGradient id="gradient" x1="50%" y1="100%" x2="50%" y2="0%"><stop offset="5%" stop-color="#144aa1"></stop><stop offset="95%" stop-color="#8ED1FC"></stop></linearGradient></defs><path d="M 0,500 C 0,500 0,125 0,125 C 85.32463071109584,121.63345929233941 170.64926142219167,118.2669185846788 241,116 C 311.35073857780833,113.7330814153212 366.7275850223291,112.56578495362419 433,106 C 499.2724149776709,99.43421504637581 576.440398488492,87.46994160082446 645,87 C 713.559601511508,86.53005839917554 773.5108210237032,97.55444864307799 832,117 C 890.4891789762968,136.445551356922 947.5163174166953,164.3122638268636 1024,158 C 1100.4836825833047,151.6877361731364 1196.4239093095157,111.19649604946754 1269,100 C 1341.5760906904843,88.80350395053246 1390.7880453452422,106.90175197526622 1440,125 C 1440,125 1440,500 1440,500 Z" stroke="none" stroke-width="0" fill="url(#gradient)" fill-opacity="0.4" class="transition-all duration-300 ease-in-out delay-150 path-0" transform="rotate(-180 720 250)"></path><defs><linearGradient id="gradient" x1="50%" y1="100%" x2="50%" y2="0%"><stop offset="5%" stop-color="#144aa1"></stop><stop offset="95%" stop-color="#8ED1FC"></stop></linearGradient></defs><path d="M 0,500 C 0,500 0,250 0,250 C 55.58914462384061,226.18481621435933 111.17828924768122,202.36963242871863 180,210 C 248.82171075231878,217.63036757128137 330.87598763311576,256.70628649948475 403,260 C 475.12401236688424,263.29371350051525 537.3177602198557,230.80522157334246 617,218 C 696.6822397801443,205.19477842665754 793.8529714874613,212.07282720714528 859,229 C 924.1470285125387,245.92717279285472 957.270353830299,272.90346959807624 1018,282 C 1078.729646169701,291.09653040192376 1167.0656131913431,282.31329440054964 1242,274 C 1316.9343868086569,265.68670559945036 1378.4671934043286,257.84335279972515 1440,250 C 1440,250 1440,500 1440,500 Z" stroke="none" stroke-width="0" fill="url(#gradient)" fill-opacity="0.53" class="transition-all duration-300 ease-in-out delay-150 path-1" transform="rotate(-180 720 250)"></path><defs><linearGradient id="gradient" x1="50%" y1="100%" x2="50%" y2="0%"><stop offset="5%" stop-color="#144aa1"></stop><stop offset="95%" stop-color="#8ED1FC"></stop></linearGradient></defs><path d="M 0,500 C 0,500 0,375 0,375 C 51.85640673308143,355.7062864994847 103.71281346616286,336.41257299896944 186,336 C 268.28718653383714,335.58742700103056 381.00515286843006,354.055994503607 449,363 C 516.9948471315699,371.944005496393 540.2665750601168,371.3634489866026 603,377 C 665.7334249398832,382.6365510133974 767.9285468911028,394.49020954998286 834,392 C 900.0714531088972,389.50979045001714 930.0192373754726,372.67571281346613 995,364 C 1059.9807626245274,355.32428718653387 1159.9945036070078,354.80693919615254 1240,358 C 1320.0054963929922,361.19306080384746 1380.0027481964962,368.0965304019237 1440,375 C 1440,375 1440,500 1440,500 Z" stroke="none" stroke-width="0" fill="url(#gradient)" fill-opacity="1" class="transition-all duration-300 ease-in-out delay-150 path-2" transform="rotate(-180 720 250)"></path></svg>