<svg width="100%" height="100%" id="svg" viewBox="0 0 1440 490" xmlns="http://www.w3.org/2000/svg" class="transition duration-300 ease-in-out delay-150"><defs><linearGradient id="gradient" x1="50%" y1="100%" x2="50%" y2="0%"><stop offset="5%" stop-color="#144aa1"></stop><stop offset="95%" stop-color="#8ED1FC"></stop></linearGradient></defs><path d="M 0,500 C 0,500 0,125 0,125 C 52.46719340432841,100.888010992786 104.93438680865682,76.77602198557199 185,90 C 265.0656131913432,103.22397801442801 372.7296461697011,153.7839230504981 438,165 C 503.2703538302989,176.2160769495019 526.1470285125387,148.08828581243557 589,129 C 651.8529714874613,109.91171418756443 754.6822397801444,99.86293369975955 838,92 C 921.3177602198556,84.13706630024045 985.1240123668842,78.45997938852628 1055,79 C 1124.8759876331158,79.54002061147372 1200.8217107523187,86.29714874613535 1266,95 C 1331.1782892476813,103.70285125386465 1385.5891446238406,114.35142562693233 1440,125 C 1440,125 1440,500 1440,500 Z" stroke="none" stroke-width="0" fill="url(#gradient)" fill-opacity="0.4" class="transition-all duration-300 ease-in-out delay-150 path-0" transform="rotate(-180 720 250)"></path><defs><linearGradient id="gradient" x1="50%" y1="100%" x2="50%" y2="0%"><stop offset="5%" stop-color="#144aa1"></stop><stop offset="95%" stop-color="#8ED1FC"></stop></linearGradient></defs><path d="M 0,500 C 0,500 0,250 0,250 C 83.28065956715906,255.43661971830986 166.56131913431813,260.8732394366197 237,253 C 307.4386808656819,245.1267605633803 365.0353830298866,223.94366197183098 430,212 C 494.9646169701134,200.05633802816902 567.2971487461353,197.35211267605635 641,218 C 714.7028512538647,238.64788732394365 789.776021985572,282.6478873239437 854,278 C 918.223978014428,273.3521126760563 971.5987633115769,220.05633802816902 1038,209 C 1104.401236688423,197.94366197183098 1183.828924768121,229.1267605633803 1253,243 C 1322.171075231879,256.8732394366197 1381.0855376159395,253.43661971830986 1440,250 C 1440,250 1440,500 1440,500 Z" stroke="none" stroke-width="0" fill="url(#gradient)" fill-opacity="0.53" class="transition-all duration-300 ease-in-out delay-150 path-1" transform="rotate(-180 720 250)"></path><defs><linearGradient id="gradient" x1="50%" y1="100%" x2="50%" y2="0%"><stop offset="5%" stop-color="#144aa1"></stop><stop offset="95%" stop-color="#8ED1FC"></stop></linearGradient></defs><path d="M 0,500 C 0,500 0,375 0,375 C 57.508072827207144,391.5462040535898 115.01614565441429,408.09240810717966 195,412 C 274.9838543455857,415.90759189282034 377.44349020954996,407.1765716248712 436,388 C 494.55650979045004,368.8234283751288 509.2098935073858,339.20130539333564 578,331 C 646.7901064926142,322.79869460666436 769.716935760907,336.01820680178633 845,353 C 920.283064239093,369.98179319821367 947.9223634489867,390.7258673995191 1016,384 C 1084.0776365510133,377.2741326004809 1192.5936104431466,343.0783236001374 1270,337 C 1347.4063895568534,330.9216763998626 1393.7031947784267,352.9608381999313 1440,375 C 1440,375 1440,500 1440,500 Z" stroke="none" stroke-width="0" fill="url(#gradient)" fill-opacity="1" class="transition-all duration-300 ease-in-out delay-150 path-2" transform="rotate(-180 720 250)"></path></svg>