<svg width="100%" height="100%" id="svg" viewBox="0 0 1440 690" xmlns="http://www.w3.org/2000/svg" class="transition duration-300 ease-in-out delay-150"><defs><linearGradient id="gradient" x1="0%" y1="50%" x2="100%" y2="50%"><stop offset="5%" stop-color="#abc8f5"></stop><stop offset="95%" stop-color="#8ed1fc"></stop></linearGradient></defs><path d="M 0,700 C 0,700 0,175 0,175 C 110.79425837320574,154.40669856459328 221.58851674641147,133.8133971291866 324,155 C 426.41148325358853,176.1866028708134 520.4401913875598,239.1531100478469 612,234 C 703.5598086124402,228.8468899521531 792.6507177033494,155.57416267942585 883,132 C 973.3492822966506,108.42583732057416 1064.956937799043,134.55023923444975 1158,150 C 1251.043062200957,165.44976076555025 1345.5215311004786,170.22488038277513 1440,175 C 1440,175 1440,700 1440,700 Z" stroke="none" stroke-width="0" fill="url(#gradient)" fill-opacity="0.4" class="transition-all duration-300 ease-in-out delay-150 path-0"></path><defs><linearGradient id="gradient" x1="0%" y1="50%" x2="100%" y2="50%"><stop offset="5%" stop-color="#abc8f5"></stop><stop offset="95%" stop-color="#8ed1fc"></stop></linearGradient></defs><path d="M 0,700 C 0,700 0,350 0,350 C 122.47846889952149,348.53588516746413 244.95693779904298,347.07177033492826 324,363 C 403.043062200957,378.92822966507174 438.6507177033494,412.2488038277512 533,411 C 627.3492822966506,409.7511961722488 780.4401913875597,373.9330143540669 895,365 C 1009.5598086124403,356.0669856459331 1085.5885167464116,374.01913875598086 1170,376 C 1254.4114832535884,377.98086124401914 1347.2057416267942,363.99043062200957 1440,350 C 1440,350 1440,700 1440,700 Z" stroke="none" stroke-width="0" fill="url(#gradient)" fill-opacity="0.53" class="transition-all duration-300 ease-in-out delay-150 path-1"></path><defs><linearGradient id="gradient" x1="0%" y1="50%" x2="100%" y2="50%"><stop offset="5%" stop-color="#abc8f5"></stop><stop offset="95%" stop-color="#8ed1fc"></stop></linearGradient></defs><path d="M 0,700 C 0,700 0,525 0,525 C 64.14354066985646,495.2870813397129 128.28708133971293,465.5741626794258 239,481 C 349.7129186602871,496.4258373205742 506.9952153110048,556.9904306220096 620,559 C 733.0047846889952,561.0095693779904 801.7320574162678,504.4641148325359 885,487 C 968.2679425837322,469.5358851674641 1066.0765550239237,491.1531100478469 1161,504 C 1255.9234449760763,516.8468899521531 1347.961722488038,520.9234449760766 1440,525 C 1440,525 1440,700 1440,700 Z" stroke="none" stroke-width="0" fill="url(#gradient)" fill-opacity="1" class="transition-all duration-300 ease-in-out delay-150 path-2"></path></svg>