<svg width="100%" height="100%" id="svg" viewBox="0 0 1440 590" xmlns="http://www.w3.org/2000/svg" class="transition duration-300 ease-in-out delay-150"><defs><linearGradient id="gradient" x1="50%" y1="100%" x2="50%" y2="0%"><stop offset="5%" stop-color="#144aa1"></stop><stop offset="95%" stop-color="#8ED1FC"></stop></linearGradient></defs><path d="M 0,600 C 0,600 0,150 0,150 C 76.7454482995534,166.08107179663347 153.4908965991068,182.1621435932669 225,192 C 296.5091034008932,201.8378564067331 362.7818619031261,205.43249742356582 418,185 C 473.2181380968739,164.56750257643418 517.3816557883889,120.10786671246993 582,105 C 646.6183442116111,89.89213328753007 731.6915149433186,104.13603572655445 807,107 C 882.3084850566814,109.86396427344555 947.8522844383372,101.34799038131226 1017,115 C 1086.1477155616628,128.65200961868774 1158.8993473033322,164.47200274819647 1230,174 C 1301.1006526966678,183.52799725180353 1370.5503263483338,166.76399862590176 1440,150 C 1440,150 1440,600 1440,600 Z" stroke="none" stroke-width="0" fill="url(#gradient)" fill-opacity="0.4" class="transition-all duration-300 ease-in-out delay-150 path-0" transform="rotate(-180 720 300)"></path><defs><linearGradient id="gradient" x1="50%" y1="100%" x2="50%" y2="0%"><stop offset="5%" stop-color="#144aa1"></stop><stop offset="95%" stop-color="#8ED1FC"></stop></linearGradient></defs><path d="M 0,600 C 0,600 0,300 0,300 C 76.29130882858126,319.7107523187908 152.58261765716253,339.42150463758156 228,339 C 303.41738234283747,338.57849536241844 377.96083819993123,318.0247337684645 430,324 C 482.03916180006877,329.9752662315355 511.5740295431125,362.47956028856066 585,354 C 658.4259704568875,345.52043971143934 775.7430436276192,296.057025077293 855,277 C 934.2569563723808,257.942974922707 975.4537959464103,269.29233940226726 1024,292 C 1072.5462040535897,314.70766059773274 1128.4417725867397,348.7736173136379 1199,352 C 1269.5582274132603,355.2263826863621 1354.7791137066301,327.61319134318103 1440,300 C 1440,300 1440,600 1440,600 Z" stroke="none" stroke-width="0" fill="url(#gradient)" fill-opacity="0.53" class="transition-all duration-300 ease-in-out delay-150 path-1" transform="rotate(-180 720 300)"></path><defs><linearGradient id="gradient" x1="50%" y1="100%" x2="50%" y2="0%"><stop offset="5%" stop-color="#144aa1"></stop><stop offset="95%" stop-color="#8ED1FC"></stop></linearGradient></defs><path d="M 0,600 C 0,600 0,450 0,450 C 59.495705942974936,423.43181037444174 118.99141188594987,396.86362074888353 182,408 C 245.00858811405013,419.13637925111647 311.5300583991755,467.97732737890755 382,485 C 452.4699416008245,502.02267262109245 526.888354517348,487.227069735486 590,469 C 653.111645482652,450.772930264514 704.9165235314325,429.11439367914807 784,435 C 863.0834764685675,440.88560632085193 969.4455513569221,474.3153555479217 1051,491 C 1132.5544486430779,507.6846444520783 1189.3012710408796,507.6241841291652 1250,498 C 1310.6987289591204,488.3758158708348 1375.3493644795603,469.1879079354174 1440,450 C 1440,450 1440,600 1440,600 Z" stroke="none" stroke-width="0" fill="url(#gradient)" fill-opacity="1" class="transition-all duration-300 ease-in-out delay-150 path-2" transform="rotate(-180 720 300)"></path></svg>