<svg width="100%" height="100%" id="svg" viewBox="0 0 1440 690" xmlns="http://www.w3.org/2000/svg" class="transition duration-300 ease-in-out delay-150"><defs><linearGradient id="gradient" x1="0%" y1="50%" x2="100%" y2="50%"><stop offset="5%" stop-color="#144aa1"></stop><stop offset="95%" stop-color="#8ed1fc"></stop></linearGradient></defs><path d="M 0,700 C 0,700 0,175 0,175 C 100.5358851674641,210.8181818181818 201.0717703349282,246.63636363636365 303,233 C 404.9282296650718,219.36363636363635 508.2488038277513,156.27272727272725 591,141 C 673.7511961722487,125.72727272727273 735.9330143540669,158.27272727272728 841,178 C 946.0669856459331,197.72727272727272 1094.019138755981,204.63636363636365 1201,202 C 1307.980861244019,199.36363636363635 1373.9904306220096,187.1818181818182 1440,175 C 1440,175 1440,700 1440,700 Z" stroke="none" stroke-width="0" fill="url(#gradient)" fill-opacity="0.4" class="transition-all duration-300 ease-in-out delay-150 path-0" transform="rotate(-180 720 350)"></path><defs><linearGradient id="gradient" x1="0%" y1="50%" x2="100%" y2="50%"><stop offset="5%" stop-color="#144aa1"></stop><stop offset="95%" stop-color="#8ed1fc"></stop></linearGradient></defs><path d="M 0,700 C 0,700 0,350 0,350 C 84.61244019138758,354.66985645933016 169.22488038277515,359.33971291866027 264,358 C 358.77511961722485,356.66028708133973 463.7129186602871,349.311004784689 567,356 C 670.2870813397129,362.688995215311 771.9234449760766,383.4162679425838 867,390 C 962.0765550239234,396.5837320574162 1050.5933014354066,389.0239234449761 1145,380 C 1239.4066985645934,370.9760765550239 1339.7033492822966,360.4880382775119 1440,350 C 1440,350 1440,700 1440,700 Z" stroke="none" stroke-width="0" fill="url(#gradient)" fill-opacity="0.53" class="transition-all duration-300 ease-in-out delay-150 path-1" transform="rotate(-180 720 350)"></path><defs><linearGradient id="gradient" x1="0%" y1="50%" x2="100%" y2="50%"><stop offset="5%" stop-color="#144aa1"></stop><stop offset="95%" stop-color="#8ed1fc"></stop></linearGradient></defs><path d="M 0,700 C 0,700 0,525 0,525 C 108.90909090909093,515.7272727272727 217.81818181818187,506.45454545454544 304,497 C 390.18181818181813,487.54545454545456 453.6363636363636,477.90909090909093 542,493 C 630.3636363636364,508.09090909090907 743.6363636363635,547.9090909090909 840,563 C 936.3636363636365,578.0909090909091 1015.818181818182,568.4545454545455 1113,558 C 1210.181818181818,547.5454545454545 1325.090909090909,536.2727272727273 1440,525 C 1440,525 1440,700 1440,700 Z" stroke="none" stroke-width="0" fill="url(#gradient)" fill-opacity="1" class="transition-all duration-300 ease-in-out delay-150 path-2" transform="rotate(-180 720 350)"></path></svg>